<svg width="63" height="41" viewBox="0 0 63 41" fill="none" xmlns="http://www.w3.org/2000/svg">
<rect x="4" y="2" width="52" height="37" rx="8" fill="#F8FCFB" stroke="url(#paint0_linear_191_11)" stroke-width="4"/>
<path d="M9.9219 19.0197L45.0524 11.9369C45.6716 11.8121 46.25 12.2855 46.25 12.9172V27.0828C46.25 27.7145 45.6716 28.1879 45.0524 28.0631L9.92189 20.9803C8.85209 20.7646 8.85206 19.2354 9.9219 19.0197Z" fill="#F8FCFB" stroke="url(#paint1_linear_191_11)" stroke-width="2"/>
<rect width="6.70213" height="1.15789" rx="0.578947" transform="matrix(1 0 0 -1 45.5745 20.5789)" fill="url(#paint2_linear_191_11)"/>
<rect width="5.78947" height="1.34043" rx="0.670213" transform="matrix(0 -1 -1 0 26.8085 20.5789)" fill="url(#paint3_linear_191_11)"/>
<rect width="5.78947" height="1.34043" rx="0.670213" transform="matrix(0 -1 -1 0 40.2128 18.2632)" fill="url(#paint4_linear_191_11)"/>
<rect width="5.78947" height="1.34043" rx="0.670213" transform="matrix(0 -1 -1 0 34.8511 26.3684)" fill="url(#paint5_linear_191_11)"/>
<rect width="7.96728" height="1.25249" rx="0.626245" transform="matrix(0.756752 -0.653702 -0.756752 -0.653702 46.5222 20.8599)" fill="url(#paint6_linear_191_11)"/>
<rect width="7.96728" height="1.25249" rx="0.626245" transform="matrix(0.756752 0.653702 0.756752 -0.653702 45.5745 20.2397)" fill="url(#paint7_linear_191_11)"/>
<defs>
<linearGradient id="paint0_linear_191_11" x1="7.5" y1="5" x2="53.5" y2="38" gradientUnits="userSpaceOnUse">
<stop stop-color="#4F5AA8"/>
<stop offset="1" stop-color="#A1F480"/>
</linearGradient>
<linearGradient id="paint1_linear_191_11" x1="0" y1="20" x2="63" y2="20" gradientUnits="userSpaceOnUse">
<stop stop-color="#4F5AA8"/>
<stop offset="1" stop-color="#A1F480"/>
</linearGradient>
<linearGradient id="paint2_linear_191_11" x1="0.925476" y1="0.0788578" x2="5.42548" y2="0.578858" gradientUnits="userSpaceOnUse">
<stop stop-color="#A1F480"/>
<stop offset="1" stop-color="#4F5AA8"/>
</linearGradient>
<linearGradient id="paint3_linear_191_11" x1="6.07886" y1="-1.69153" x2="1.07886" y2="1.80847" gradientUnits="userSpaceOnUse">
<stop stop-color="#A1F480"/>
<stop offset="0.997833" stop-color="#4F5AA8"/>
</linearGradient>
<linearGradient id="paint4_linear_191_11" x1="6.26318" y1="-0.287232" x2="1.76318" y2="0.712769" gradientUnits="userSpaceOnUse">
<stop stop-color="#A1F480"/>
<stop offset="1" stop-color="#4F5AA8"/>
</linearGradient>
<linearGradient id="paint5_linear_191_11" x1="4.36841" y1="0.351074" x2="-0.631592" y2="1.35107" gradientUnits="userSpaceOnUse">
<stop stop-color="#4F5AA8"/>
<stop offset="1" stop-color="#A1F480"/>
</linearGradient>
<linearGradient id="paint6_linear_191_11" x1="6.2933" y1="0.376193" x2="1.98126" y2="2.5662" gradientUnits="userSpaceOnUse">
<stop stop-color="#4F5AA8"/>
<stop offset="1" stop-color="#A1F480" stop-opacity="0"/>
</linearGradient>
<linearGradient id="paint7_linear_191_11" x1="5.08732" y1="0.0999501" x2="1.51201" y2="-1.00361" gradientUnits="userSpaceOnUse">
<stop stop-color="#4F5AA8"/>
<stop offset="1" stop-color="#A1F480"/>
</linearGradient>
</defs>
</svg>
